<svg width="83" height="19" viewBox="0 0 83 19" fill="none" xmlns="http://www.w3.org/2000/svg">
<path d="M43.8923 15.0161V4.47656H34.4228V7.11146H41.259V9.99971C40.4657 9.20586 39.436 8.68226 37.5961 8.68226C34.389 8.68226 32.8867 10.7429 32.8867 13.1582C32.8867 15.5904 34.389 17.6341 37.5961 17.6341C39.436 17.6341 40.4657 17.1105 41.259 16.3167V17.6341H45.4621V14.9992H43.8923V15.0161ZM38.3895 15.0161C36.4652 15.0161 35.5199 14.6277 35.5199 13.1751C35.5199 11.7225 36.4652 11.334 38.3895 11.334C40.3138 11.334 41.259 11.7225 41.259 13.1751C41.259 14.6277 40.3138 15.0161 38.3895 15.0161Z" fill="#FFF6D2"/>
<path d="M51.7543 4.49609C55.1977 4.49609 57.2233 6.62428 57.2233 9.49564H54.5901C54.4888 8.12752 53.9318 7.13099 51.8724 7.13099C49.4249 7.13099 48.4796 7.92483 48.4796 11.0833C48.4796 14.2418 49.4249 15.0357 51.8724 15.0357C53.9318 15.0357 54.4719 14.0391 54.5901 12.671H57.2233C57.2233 15.5424 55.1977 17.6706 51.7543 17.6706C47.8888 17.6706 45.8633 14.9512 45.8633 11.0833C45.8633 7.19855 47.8888 4.49609 51.7543 4.49609Z" fill="#FFF6D2"/>
<path d="M65.2095 4.47677C63.3696 4.47677 62.0867 5.18617 61.2934 6.06446V0.980469H58.6602V17.6512H61.2934V16.0636C62.0867 16.9419 63.3696 17.6512 65.2095 17.6512C69.48 17.6512 70.9654 14.9488 70.9654 11.064C70.9654 7.19612 69.4632 4.47677 65.2095 4.47677ZM64.8044 15.0164C62.2218 15.0164 61.2765 14.2225 61.2765 11.064C61.2765 7.90551 62.2218 7.11167 64.8044 7.11167C67.387 7.11167 68.3322 7.90551 68.3322 11.064C68.3322 14.2225 67.387 15.0164 64.8044 15.0164Z" fill="#FFF6D2"/>
<path d="M80.4846 0.980469H74.543V3.61536H80.4846V0.980469Z" fill="#FFF6D2"/>
<path d="M29.6766 10.4584L24.9503 9.30984C24.5452 9.19161 24.4101 9.09027 24.4101 8.70179V7.55325C24.4101 6.99587 24.7815 6.70873 25.5242 6.70873H27.8874C28.8833 6.70873 29.0014 7.24922 29.0014 7.65459V8.71868H31.6515V7.84038C31.6515 5.67842 30.3687 4.49609 28.0393 4.49609H25.406C23.0429 4.49609 21.7432 5.62775 21.7432 7.68837V8.97204C21.7432 10.2895 22.4352 11.1509 23.7687 11.4718L28.5963 12.6541C29.0183 12.7724 29.1702 12.9413 29.1702 13.3129V14.5627C29.1702 14.985 29.0352 15.4579 28.0562 15.4579H25.406C24.4101 15.4579 24.292 14.9174 24.292 14.5121V13.2284H21.625V14.3432C21.625 16.4714 22.9585 17.6875 25.271 17.6875H28.1743C30.5881 17.6875 31.871 16.5896 31.871 14.4952V12.9244C31.8203 11.6407 31.0607 10.7793 29.6766 10.4584Z" fill="#FFF6D2"/>
<path d="M82.6106 11.8914V8.17555C82.6106 5.79401 81.3109 4.47656 78.9646 4.47656H76.0613C73.6982 4.47656 72.3984 5.79401 72.3984 8.17555V13.9689C72.3984 16.3505 73.6982 17.6679 76.0613 17.6679H78.9646C81.3109 17.6679 82.6106 16.4011 82.6106 14.0703V13.2427H79.9437V14.273C79.9437 15.033 79.5892 15.3877 78.8127 15.3877H76.2132C75.4705 15.3877 75.0823 15.0161 75.0823 14.273V11.8914H82.6106ZM75.0823 7.87152C75.0823 7.12835 75.4537 6.75676 76.2132 6.75676H78.8465C79.6061 6.75676 79.9774 7.11146 79.9774 7.87152V9.64501H75.0992V7.87152H75.0823Z" fill="#FFF6D2"/>
<path d="M17.4198 13.2927C14.8372 12.8873 11.8664 12.2286 8.79431 11.1476C10.0096 13.5123 11.3263 15.7587 12.7442 17.8531C11.8158 18.2585 10.8368 18.5287 9.79021 18.6132C8.45672 16.5357 7.19074 14.3568 6.02604 12.0597C5.4015 13.9852 4.99638 15.8431 4.76007 17.6335C3.76417 17.1268 2.86955 16.4343 2.12684 15.6236C2.51507 13.5292 3.10586 11.3503 4.00048 9.12079C2.65011 8.44517 1.31661 7.702 0 6.84059C0.253195 5.87784 0.675187 4.98265 1.21534 4.17192C1.80613 4.57728 2.39691 4.94887 3.00458 5.30357C2.70075 4.5435 2.41379 3.78344 2.12684 3.00648C2.81891 2.26331 3.62913 1.62147 4.52375 1.13165C4.9795 2.41532 5.45213 3.6821 5.95853 4.93198C6.81939 3.3274 7.84905 1.67214 9.03063 0C9.1319 0 9.25006 0 9.35134 0C10.3472 0.0337807 11.3094 0.236465 12.1871 0.557382C10.9887 2.16196 9.95901 3.73277 9.08126 5.26979L15.2086 2.36465C15.9513 3.02337 16.5927 3.80033 17.0822 4.67863L9.45262 8.31005C12.6091 9.44171 15.6643 10.1173 18.2469 10.5058C18.1119 11.4854 17.8418 12.4313 17.4198 13.2927Z" fill="#FFF6D2"/>
</svg>
