<svg width="53" height="52" viewBox="0 0 53 52" fill="none" xmlns="http://www.w3.org/2000/svg">
<circle cx="26.626" cy="25.876" r="25.3224" fill="#18191D" stroke="url(#paint0_linear_3561_23610)" stroke-width="0.888506"/>
<path d="M23.8986 23.9543C23.8986 23.4458 24.0464 22.9486 24.3233 22.5258C24.6002 22.1029 24.9938 21.7733 25.4542 21.5787C25.9148 21.3841 26.4214 21.3332 26.9104 21.4324C27.3991 21.5316 27.8482 21.7765 28.2007 22.1361C28.5531 22.4957 28.7931 22.9539 28.8904 23.4527C28.9876 23.9515 28.9377 24.4685 28.747 24.9384C28.5562 25.4082 28.2332 25.8098 27.8187 26.0923C27.4043 26.3749 26.9172 26.5257 26.4187 26.5257V27.8114M29.2538 36.8112L27.4267 39.2968C26.9227 39.9826 25.9147 39.9826 25.4106 39.2968L23.5835 36.8112H20.1184C17.3347 36.8112 15.0781 34.5087 15.0781 31.6685V21.383C15.0781 18.5427 17.3347 16.2402 20.1184 16.2402H32.719C35.5026 16.2402 37.7592 18.5427 37.7592 21.383V31.6685C37.7592 34.5087 35.5026 36.8112 32.719 36.8112H29.2538Z" stroke="white" stroke-width="2.66552" stroke-linecap="round" stroke-linejoin="round"/>
<path d="M26.4163 32.9522C27.1122 32.9522 27.6764 32.3766 27.6764 31.6665C27.6764 30.9565 27.1122 30.3809 26.4163 30.3809C25.7204 30.3809 25.1562 30.9565 25.1562 31.6665C25.1562 32.3766 25.7204 32.9522 26.4163 32.9522Z" fill="white"/>
<circle cx="26.6221" cy="25.876" r="25.3224" fill="url(#paint1_linear_3561_23610)" stroke="url(#paint2_linear_3561_23610)" stroke-width="0.888506"/>
<defs>
<linearGradient id="paint0_linear_3561_23610" x1="26.626" y1="0.109375" x2="26.626" y2="51.6427" gradientUnits="userSpaceOnUse">
<stop stop-color="white" stop-opacity="0.1"/>
<stop offset="1" stop-color="white" stop-opacity="0.05"/>
</linearGradient>
<linearGradient id="paint1_linear_3561_23610" x1="73.2687" y1="-23.8803" x2="7.96351" y2="76.9651" gradientUnits="userSpaceOnUse">
<stop stop-color="white" stop-opacity="0.2"/>
<stop offset="1" stop-color="white" stop-opacity="0.1"/>
</linearGradient>
<linearGradient id="paint2_linear_3561_23610" x1="26.6221" y1="0.109375" x2="26.6221" y2="51.6427" gradientUnits="userSpaceOnUse">
<stop stop-color="white" stop-opacity="0.1"/>
<stop offset="1" stop-color="white" stop-opacity="0.05"/>
</linearGradient>
</defs>
</svg>
