<svg width="46" height="14" viewBox="0 0 46 14" fill="none" xmlns="http://www.w3.org/2000/svg">
<path d="M38.5464 11.7859C37.1073 11.7859 35.6819 11.7859 34.2565 11.7859C34.1743 12.0338 34.0921 12.2816 34.0098 12.5157C33.9276 12.7361 33.8591 12.9564 33.7768 13.1767C33.722 13.3282 33.6809 13.4659 33.6261 13.6174C33.585 13.7551 33.5712 13.7551 33.4342 13.7551C32.8586 13.7551 32.2829 13.7551 31.721 13.7551C31.2002 13.7551 30.6657 13.7551 30.1449 13.7551C30.1038 13.7551 30.0626 13.7551 30.0078 13.7413C30.0215 13.7 30.0215 13.6587 30.0352 13.6312C30.1997 13.2456 30.3505 12.8738 30.5149 12.4882C30.6931 12.0751 30.8576 11.6482 31.0357 11.235C31.1728 10.9183 31.3098 10.6016 31.4332 10.2848C31.584 9.92681 31.721 9.56876 31.8718 9.22449C32.0362 8.83891 32.2007 8.45332 32.3652 8.05396C32.4611 7.80609 32.557 7.55821 32.6667 7.32411C32.8449 6.89721 33.023 6.47031 33.2012 6.04341C33.4205 5.50635 33.6535 4.96928 33.8728 4.43222C34.0098 4.11549 34.1332 3.79876 34.2565 3.48203C34.3251 3.30301 34.421 3.12399 34.4895 2.94496C34.6403 2.60069 34.7773 2.24265 34.9281 1.8846C35.0514 1.58164 35.1885 1.29246 35.4078 1.03081C35.5997 0.810475 35.8464 0.672766 36.1205 0.590141C36.2849 0.548828 36.4494 0.548828 36.6276 0.548828C37.5184 0.548828 38.4093 0.548828 39.3002 0.548828C39.4235 0.548828 39.4372 0.57637 39.4646 0.686537C39.492 0.851788 39.5194 1.01704 39.5606 1.16852C39.588 1.33377 39.6291 1.48525 39.6702 1.6505C39.7113 1.82952 39.7387 2.00854 39.7799 2.18756C39.821 2.36659 39.8484 2.55938 39.8895 2.7384C39.9169 2.87611 39.9443 3.01382 39.9854 3.15153C40.0266 3.33055 40.0677 3.4958 40.0951 3.67482C40.1499 3.9227 40.2047 4.18434 40.2595 4.43222C40.3144 4.73518 40.3829 5.02437 40.4377 5.32733C40.4925 5.56143 40.5474 5.80931 40.5885 6.04341C40.6296 6.26375 40.6707 6.48408 40.7255 6.70442C40.7667 6.89721 40.8078 7.07623 40.8489 7.26902C40.8763 7.43427 40.9037 7.59952 40.9448 7.751C40.9859 7.95757 41.0408 8.16413 41.0819 8.38447C41.123 8.57726 41.1504 8.78382 41.1915 8.99039C41.2189 9.12809 41.26 9.27957 41.2875 9.41728C41.3423 9.66516 41.3971 9.89926 41.4382 10.1471C41.4793 10.3262 41.5068 10.4914 41.5479 10.6704C41.5753 10.8219 41.6164 10.9872 41.6438 11.1386C41.6986 11.3728 41.7397 11.6069 41.7946 11.8547C41.822 11.9649 41.8357 12.0888 41.8631 12.199C41.8768 12.2679 41.8905 12.3367 41.9042 12.4056C41.9727 12.7361 42.0413 13.0528 42.1098 13.3833C42.1235 13.4246 42.1372 13.4522 42.1372 13.4935C42.1509 13.521 42.1646 13.5623 42.1646 13.5899C42.1783 13.7276 42.1646 13.7413 42.0276 13.7413C41.0682 13.7413 40.1088 13.7413 39.1357 13.7413C38.9986 13.7413 38.9849 13.7413 38.9575 13.6036C38.9164 13.4108 38.889 13.2318 38.8479 13.039C38.8205 12.8875 38.7793 12.7498 38.7519 12.5984C38.7108 12.4331 38.6834 12.2679 38.6423 12.1026C38.5875 12.0062 38.5738 11.896 38.5464 11.7859ZM36.9976 4.28074C36.9839 4.28074 36.9839 4.28074 36.9702 4.28074C36.4083 5.86439 35.8327 7.43427 35.2844 9.01793C35.3941 9.04547 37.8748 9.04547 37.9981 9.0317C37.9981 8.99039 37.9981 8.94907 37.9981 8.92153C37.9707 8.77005 37.9296 8.63234 37.9022 8.48086C37.8611 8.31561 37.8337 8.16413 37.7925 7.99888C37.7651 7.83363 37.7377 7.66838 37.6966 7.5169C37.6692 7.36542 37.6144 7.21394 37.587 7.06246C37.5459 6.88344 37.5184 6.70442 37.491 6.51162C37.4362 6.23621 37.3677 5.96079 37.2992 5.68537C37.2169 5.32733 37.1484 4.95551 37.0799 4.59747C37.0524 4.50107 37.025 4.39091 36.9976 4.28074Z" fill="#FFF6D2"/>
<path d="M0.366348 1.03087C0.325231 0.879392 0.380051 0.741684 0.407462 0.617745C0.407462 0.603975 0.434877 0.576433 0.462288 0.576433C0.489699 0.562662 0.530814 0.576433 0.57193 0.576433C2.40847 0.576433 4.2313 0.576433 6.06784 0.576433C6.2186 0.576433 6.38307 0.590204 6.52012 0.617745C7.06834 0.755454 7.47951 1.08596 7.67139 1.63679C7.72621 1.7745 7.73992 1.92598 7.76733 2.07746C7.79474 2.17386 7.80845 2.27025 7.83586 2.36665C7.84956 2.44927 7.86327 2.51813 7.87697 2.60075C7.91809 2.79355 7.9455 2.98634 7.97291 3.17913C8.00032 3.35815 8.04144 3.53718 8.08256 3.7162C8.09626 3.78505 8.10996 3.85391 8.12367 3.93653C8.1922 4.26703 8.24702 4.6113 8.31555 4.94181C8.35667 5.12083 8.39778 5.31362 8.42519 5.49264C8.4389 5.58904 8.4526 5.67166 8.46631 5.76806C8.49372 5.93331 8.53483 6.11233 8.57595 6.27758C8.61707 6.48415 8.64449 6.67694 8.6856 6.8835C8.71301 7.00744 8.74042 7.11761 8.75413 7.24154C8.76783 7.3104 8.78154 7.37925 8.79524 7.46188C8.85007 7.79238 8.91859 8.10911 8.97341 8.43961C9.01453 8.6324 9.05565 8.8252 9.08306 9.03176C9.09676 9.12816 9.11047 9.21078 9.12417 9.30718C9.12417 9.33472 9.13788 9.36226 9.15159 9.40357C9.16529 9.40357 9.16529 9.40357 9.179 9.40357C9.22011 9.29341 9.27494 9.16947 9.31605 9.0593C9.41199 8.8252 9.50793 8.57732 9.60387 8.34322C9.6861 8.12288 9.76834 7.90255 9.85057 7.68221C10.0287 7.22777 10.2069 6.78711 10.3851 6.33267C10.5907 5.80937 10.81 5.27231 11.0155 4.74901C11.1937 4.30835 11.3582 3.85391 11.5363 3.41324C11.6871 3.01388 11.8516 2.6283 12.0023 2.24271C12.1668 1.82958 12.3176 1.41646 12.482 1.00333C12.5231 0.893164 12.5643 0.769225 12.6191 0.659058C12.6328 0.631517 12.6739 0.603975 12.7013 0.603975C12.7561 0.590204 12.811 0.590204 12.8658 0.590204C13.9348 0.590204 15.0176 0.590204 16.0866 0.590204C16.1414 0.590204 16.1825 0.603975 16.251 0.603975C16.2236 0.672829 16.2099 0.714142 16.1962 0.769225C16.0866 1.03087 15.9769 1.27875 15.881 1.5404C15.7028 1.95352 15.5384 2.38042 15.3602 2.79355C15.1409 3.30307 14.9353 3.81259 14.716 4.30835C14.5516 4.69393 14.4008 5.07951 14.2363 5.4651C14.0171 6.00216 13.7841 6.53923 13.5648 7.09007C13.3181 7.68221 13.0714 8.26059 12.8247 8.85274C12.6191 9.33472 12.4272 9.83047 12.2216 10.3125C12.0572 10.7118 11.879 11.1112 11.7145 11.5105C11.5363 11.9374 11.3582 12.3505 11.18 12.7774C11.0567 13.0804 10.9196 13.3834 10.81 13.6863C10.7688 13.7689 10.7277 13.8103 10.6318 13.8103C9.82315 13.8103 9.01453 13.8103 8.20591 13.8103C7.90439 13.8103 7.60286 13.8103 7.30134 13.8103C7.16428 13.8103 7.16428 13.8103 7.13687 13.6863C7.08205 13.4935 7.04093 13.3007 6.99982 13.1217C6.9724 12.9978 6.93129 12.8601 6.89017 12.7361C6.83535 12.5433 6.79424 12.3368 6.73942 12.144C6.67089 11.8961 6.61606 11.662 6.54754 11.4279C6.49271 11.2351 6.4516 11.0561 6.41048 10.8633C6.36936 10.7118 6.32825 10.5741 6.28714 10.4226C6.23231 10.2023 6.17749 9.96818 6.12267 9.74785C6.05414 9.49997 5.98561 9.23832 5.93079 8.99045C5.86226 8.7288 5.80744 8.48093 5.73891 8.21928C5.67039 7.95763 5.60185 7.68221 5.51962 7.42057C5.4785 7.25532 5.43739 7.10384 5.39628 6.93859C5.35516 6.77334 5.30034 6.60808 5.25922 6.44283C5.19069 6.19496 5.13587 5.94708 5.06734 5.6992C5.01252 5.50641 4.9577 5.31362 4.91658 5.10706C4.84806 4.85918 4.79323 4.6113 4.7384 4.36343C4.69729 4.19818 4.65617 4.03293 4.60135 3.86768C4.54653 3.66111 4.49171 3.46832 4.43689 3.26176C4.32725 2.73846 4.02572 2.35288 3.53232 2.11877C3.10745 1.92598 2.68258 1.74696 2.24401 1.60925C2.05213 1.55417 1.87395 1.47154 1.68207 1.41646C1.5039 1.36137 1.31203 1.32006 1.13385 1.27875C0.983093 1.23744 0.832334 1.19612 0.681573 1.16858C0.571929 1.07218 0.462286 1.05841 0.366348 1.03087Z" fill="#FFF6D2"/>
<path d="M30.8301 0.96371C30.7752 1.19782 30.7341 1.43192 30.6793 1.66603C30.6245 1.90013 30.5834 2.13424 30.5285 2.36834C30.4737 2.60245 30.4189 2.83655 30.3778 3.07066C30.323 3.30476 30.2956 3.53887 30.2133 3.77297C30.1311 3.74543 30.0626 3.71789 29.994 3.69035C29.7473 3.59395 29.4869 3.49755 29.2402 3.41493C28.9524 3.3323 28.6509 3.26345 28.3357 3.22214C28.0204 3.18082 27.7052 3.13951 27.39 3.13951C27.1707 3.13951 26.9514 3.16705 26.7321 3.20837C26.5265 3.24968 26.3347 3.30476 26.1565 3.38739C26.0057 3.45624 25.855 3.55264 25.7453 3.67658C25.4301 4.02085 25.4027 4.40643 25.7179 4.76448C25.855 4.92973 26.0194 5.05367 26.2113 5.16383C26.5539 5.3704 26.8966 5.54942 27.2392 5.74221C27.5133 5.89369 27.8012 6.04517 28.0753 6.21042C28.3631 6.38944 28.6509 6.58223 28.9113 6.7888C29.3636 7.16061 29.7473 7.60128 29.9803 8.15212C30.0489 8.31737 30.09 8.49639 30.1448 8.67541C30.2544 9.03345 30.227 9.40527 30.227 9.77708C30.227 9.81839 30.2133 9.87348 30.2133 9.91479C30.1996 10.0387 30.1722 10.1627 30.1448 10.2728C30.1037 10.4656 30.0626 10.6584 29.994 10.8374C29.8981 11.1266 29.761 11.402 29.5829 11.6637C29.3499 12.008 29.0758 12.3247 28.7605 12.5863C28.3357 12.9444 27.8697 13.206 27.3626 13.4126C27.1433 13.509 26.8966 13.5778 26.6636 13.6467C26.4717 13.7018 26.2798 13.7569 26.0743 13.7982C25.9098 13.8395 25.7453 13.8395 25.5671 13.8808C25.1012 13.9634 24.6352 13.9083 24.1692 13.9221C24.1144 13.9221 24.0595 13.9221 23.991 13.9221C23.5798 13.9497 23.1687 13.8808 22.7575 13.812C22.5793 13.7844 22.4012 13.7569 22.223 13.7156C21.8941 13.6329 21.5651 13.5503 21.2499 13.4677C21.0306 13.3988 20.825 13.3162 20.6195 13.2336C20.5235 13.1923 20.5235 13.1785 20.5509 13.0821C20.592 12.9306 20.6195 12.7791 20.6606 12.6277C20.688 12.5175 20.7154 12.3935 20.7428 12.2834C20.7702 12.1594 20.7839 12.0355 20.8113 11.9253C20.8525 11.705 20.9073 11.4847 20.9484 11.2643C20.9895 11.0853 21.0306 10.9063 21.0717 10.7273C21.0991 10.6171 21.1129 10.5069 21.1403 10.383C21.1677 10.2728 21.1814 10.2728 21.2773 10.3141C21.62 10.4932 21.9626 10.6446 22.3189 10.7548C22.5245 10.8237 22.7438 10.8925 22.9494 10.9476C23.0453 10.9751 23.155 10.9889 23.2646 11.0027C23.4017 11.0302 23.525 11.044 23.6621 11.0715C23.6758 11.0715 23.7032 11.0853 23.7169 11.0853C24.0732 11.1266 24.4296 11.1542 24.7859 11.1266C25.1149 11.0991 25.4575 11.044 25.759 10.9063C26.0743 10.7686 26.3758 10.5896 26.5265 10.2591C26.5814 10.1489 26.6225 10.025 26.6362 9.90102C26.6499 9.73577 26.5951 9.58429 26.5265 9.44658C26.4032 9.21247 26.1976 9.04722 25.9783 8.89574C25.6083 8.6341 25.2108 8.42753 24.8133 8.2072C24.2925 7.91801 23.7717 7.62882 23.3057 7.27078C22.8672 6.92651 22.4971 6.54092 22.2367 6.04517C22.1271 5.82484 22.0585 5.59073 22.0037 5.34285C21.9626 5.10875 21.9215 4.87464 21.9352 4.62677C21.9489 4.43398 21.9763 4.24118 22.0037 4.04839C22.0311 3.78674 22.0997 3.53887 22.1956 3.29099C22.456 2.62999 22.8672 2.09292 23.4017 1.63848C23.6484 1.43192 23.9088 1.2529 24.1829 1.11519C24.5529 0.922398 24.923 0.743376 25.3342 0.64698C25.5123 0.605667 25.6905 0.536813 25.8687 0.4955C26.0743 0.454187 26.2935 0.426646 26.4991 0.385333C26.8418 0.316479 27.1981 0.330249 27.5407 0.330249C27.6367 0.330249 27.7463 0.330249 27.8423 0.330249C28.2534 0.316478 28.6646 0.371562 29.0758 0.440417C29.3088 0.481729 29.5417 0.509271 29.7747 0.578126C30.09 0.660751 30.4189 0.729605 30.7204 0.867314C30.7478 0.922398 30.7752 0.936169 30.8301 0.96371Z" fill="#FFF6D2"/>
<path d="M21.0496 0.579615C21.0496 0.620927 21.0496 0.648469 21.0496 0.676011C20.9948 0.951428 20.94 1.21308 20.8852 1.48849C20.8029 1.86031 20.7207 2.21835 20.6522 2.59016C20.6111 2.75542 20.5974 2.92067 20.5562 3.07215C20.5151 3.27871 20.4466 3.49904 20.4055 3.70561C20.3644 3.87086 20.337 4.04988 20.3095 4.21513C20.2684 4.38038 20.241 4.54563 20.1999 4.72465C20.1725 4.87613 20.1314 5.02761 20.104 5.19286C20.0491 5.44074 19.9943 5.68862 19.9532 5.93649C19.9258 6.10174 19.8847 6.26699 19.8573 6.43224C19.8298 6.58372 19.7887 6.7352 19.7476 6.87291C19.7065 7.05193 19.6791 7.23095 19.6517 7.40998C19.6243 7.56146 19.5831 7.71294 19.5557 7.86442C19.5283 7.96081 19.5146 8.05721 19.5009 8.1536C19.4872 8.22246 19.4735 8.27754 19.4598 8.3464C19.405 8.59427 19.3501 8.85592 19.2953 9.1038C19.2542 9.32413 19.1994 9.54447 19.1583 9.7648C19.0897 10.1091 19.0212 10.4396 18.939 10.7838C18.9116 10.9353 18.8568 11.1006 18.8293 11.2521C18.7882 11.4724 18.7471 11.6927 18.706 11.9131C18.6649 12.0921 18.6238 12.2711 18.5826 12.4501C18.5552 12.6016 18.5141 12.7531 18.4867 12.9183C18.4593 13.0698 18.4182 13.2213 18.3908 13.3728C18.3771 13.4692 18.3496 13.5656 18.3359 13.662C18.3085 13.7446 18.3085 13.7584 18.2126 13.7584C18.1989 13.7584 18.1989 13.7584 18.1852 13.7584C17.1299 13.7584 16.0882 13.7584 15.0329 13.7584C14.8684 13.7584 14.8684 13.7446 14.9096 13.5931C14.9507 13.4416 14.9781 13.2764 15.0192 13.1249C15.0466 13.0285 15.074 12.9183 15.0877 12.8219C15.1151 12.6842 15.1426 12.5465 15.17 12.4088C15.2111 12.2022 15.2659 12.0095 15.307 11.8029C15.3481 11.5826 15.3893 11.3622 15.4441 11.1557C15.5126 10.8527 15.5811 10.536 15.6497 10.233C15.6771 10.0815 15.7045 9.91628 15.7456 9.7648C15.8141 9.46184 15.8827 9.15888 15.9512 8.85592C16.0197 8.53919 16.0882 8.23623 16.1568 7.9195C16.1979 7.74048 16.2253 7.56146 16.2527 7.36866C16.2801 7.21718 16.3212 7.0657 16.3624 6.91422C16.3898 6.81783 16.3898 6.72143 16.4172 6.62504C16.4446 6.47356 16.4857 6.33585 16.5131 6.18437C16.5542 6.00535 16.5816 5.81255 16.6228 5.63353C16.6502 5.48205 16.6913 5.33057 16.7187 5.17909C16.7598 5.01384 16.7872 4.83482 16.8283 4.66957C16.8832 4.43546 16.938 4.18759 16.9791 3.95348C17.0202 3.78823 17.0476 3.62298 17.075 3.45773C17.1161 3.27871 17.1573 3.08592 17.1984 2.9069C17.2669 2.60394 17.3354 2.2872 17.404 1.98425C17.4725 1.68129 17.5273 1.36456 17.5821 1.0616C17.6095 0.937658 17.637 0.799949 17.6644 0.676011C17.6781 0.607156 17.7055 0.593386 17.7877 0.593386C17.9933 0.593386 18.2126 0.593386 18.4182 0.593386C19.2542 0.593386 20.104 0.593386 20.94 0.593386C20.94 0.565844 20.9948 0.579615 21.0496 0.579615Z" fill="#FFF6D2"/>
<path d="M42.1321 3.62506V1.23452H41.6562V0.828125H43.06V1.23452H42.5841V3.62506H42.1321ZM44.0117 3.62506L43.6548 1.5931V3.62506H43.2741V0.852031H43.8689L44.2258 2.95571L44.6065 0.852031H45.1775V3.64896H44.7968V1.617L44.4161 3.64896H44.0117V3.62506Z" fill="#FFF6D2"/>
</svg>
